<?xml version="1.0" ?>

<!-- Uploaded to: SVG Repo, www.svgrepo.com, Generator: SVG Repo Mixer Tools -->
<svg width="1000px" height="1000px" viewBox="0 0 512 512" id="Layer_1" version="1.1" xml:space="preserve" xmlns="http://www.w3.org/2000/svg" xmlns:xlink="http://www.w3.org/1999/xlink">

<style type="text/css">
	.st0{fill:#3B4652;}
	.st1{fill:#2B79C2;}
</style>

<g>

<path class="st1" d="M404.9,201c0,41.6-33.7,75.3-75.3,75.3c-25.2,0-102.7,0-130.3,0c-50.8,0-92.1-41.2-92.1-92.1   s41.2-92.1,92.1-92.1c0.4,0,0.7,0,1.1,0c5.4-28,30-49.1,59.6-49.1c33.5,0,60.7,27.2,60.7,60.7c0,8.2-1.6,15.9-4.5,23   c4.3-0.8,8.8-1.2,13.4-1.2C371.1,125.7,404.9,159.4,404.9,201z"/>

<g>

<path class="st0" d="M148.3,368.9c-3.9,0-7-3.1-7-7v-39.3c0-3.9,3.1-7,7-7c3.9,0,7,3.1,7,7v39.3    C155.3,365.8,152.2,368.9,148.3,368.9z"/>

</g>

<g>

<path class="st0" d="M200.3,419.8c-3.9,0-7-3.1-7-7v-70.5c0-3.9,3.1-7,7-7c3.9,0,7,3.1,7,7v70.5    C207.3,416.7,204.2,419.8,200.3,419.8z"/>

</g>

<g>

<path class="st0" d="M265,364.9c-3.9,0-7-3.1-7-7v-42.7c0-3.9,3.1-7,7-7s7,3.1,7,7v42.7C272,361.8,268.9,364.9,265,364.9z"/>

</g>

<g>

<path class="st0" d="M318.3,434.3c-3.9,0-7-3.1-7-7v-85c0-3.9,3.1-7,7-7s7,3.1,7,7v85C325.3,431.1,322.2,434.3,318.3,434.3z"/>

</g>

<g>

<path class="st0" d="M355,340.3c-3.9,0-7-3.1-7-7v-32.7c0-3.9,3.1-7,7-7s7,3.1,7,7v32.7C362,337.1,358.9,340.3,355,340.3z"/>

</g>

<g>

<path class="st0" d="M370.3,402.9c-3.9,0-7-3.1-7-7v-27.3c0-3.9,3.1-7,7-7s7,3.1,7,7v27.3C377.3,399.8,374.2,402.9,370.3,402.9z"/>

</g>

<g>

<path class="st0" d="M275.7,446.9c-3.9,0-7-3.1-7-7v-37.3c0-3.9,3.1-7,7-7s7,3.1,7,7v37.3C282.7,443.8,279.5,446.9,275.7,446.9z"/>

</g>

<g>

<path class="st0" d="M159,452.3c-3.9,0-7-3.1-7-7v-21.3c0-3.9,3.1-7,7-7s7,3.1,7,7v21.3C166,449.1,162.9,452.3,159,452.3z"/>

</g>

<g>

<path class="st0" d="M227.7,468.9c-3.9,0-7-3.1-7-7v-27.3c0-3.9,3.1-7,7-7c3.9,0,7,3.1,7,7v27.3    C234.7,465.8,231.5,468.9,227.7,468.9z"/>

</g>

<g>

<path class="st0" d="M361.7,461.9c-3.9,0-7-3.1-7-7v-21.1c0-3.9,3.1-7,7-7s7,3.1,7,7v21.1C368.7,458.8,365.5,461.9,361.7,461.9z"/>

</g>

</g>

</svg>